<svg width="129" height="128" viewBox="0 0 129 128" fill="none" xmlns="http://www.w3.org/2000/svg">
<g filter="url(#filter0_i_9555_6671)">
<path d="M128.5 30.2436V97.7124C128.504 101.688 127.724 105.626 126.205 109.301C124.686 112.975 122.458 116.314 119.648 119.127C116.838 121.94 113.501 124.171 109.828 125.694C106.155 127.216 102.218 128 98.2417 128H30.773C22.7478 127.996 15.0522 124.807 9.37623 119.134C3.70021 113.461 0.507786 105.767 0.500014 97.7417V30.2729C0.496158 26.2976 1.27607 22.3605 2.79515 18.6868C4.31422 15.0132 6.54265 11.675 9.35297 8.86333C12.1633 6.05165 15.5003 3.82161 19.1733 2.30075C22.8462 0.779896 26.7829 -0.00192622 30.7583 3.56376e-06H98.2271C102.201 -0.00192302 106.136 0.778823 109.808 2.29766C113.479 3.81651 116.816 6.0437 119.627 8.85208C122.438 11.6605 124.669 14.995 126.191 18.6654C127.714 22.3358 128.498 26.27 128.5 30.2436V30.2436Z" fill="#EEEEEE"/>
</g>
<g style="mix-blend-mode:soft-light" opacity="0.4">
<path d="M64.8033 49.895L61.3125 68.2436L64.8033 71.0304V49.895Z" fill="black"/>
</g>
<g style="mix-blend-mode:soft-light" filter="url(#filter1_f_9555_6671)">
<path d="M38.3885 66H27.6115C23.1317 66 19.5 69.5817 19.5 74C19.5 78.4183 23.1317 82 27.6115 82H38.3885C42.8683 82 46.5 78.4183 46.5 74C46.5 69.5817 42.8683 66 38.3885 66Z" fill="#C140A3"/>
</g>
<g style="mix-blend-mode:soft-light" filter="url(#filter2_f_9555_6671)">
<path d="M100.404 66H89.5957C85.1246 66 81.5 69.5785 81.5 73.9929V74.0071C81.5 78.4215 85.1246 82 89.5957 82H100.404C104.875 82 108.5 78.4215 108.5 74.0071V73.9929C108.5 69.5785 104.875 66 100.404 66Z" fill="#C140A3"/>
</g>
<path d="M65.0423 83H64.289C54.5857 83.218 43.494 88.2904 40.5845 99.1473C40.5178 99.3278 40.4901 99.52 40.5031 99.7116C40.5162 99.9032 40.5697 100.09 40.6603 100.26C40.7509 100.43 40.8766 100.58 41.0293 100.7C41.1819 100.819 41.3583 100.906 41.5471 100.955C41.7359 101.004 41.9329 101.013 42.1256 100.983C42.3183 100.952 42.5024 100.882 42.6662 100.778C42.8299 100.673 42.9698 100.537 43.0767 100.376C43.1837 100.215 43.2554 100.034 43.2873 99.8449C45.8423 90.3833 55.7081 85.9504 64.3481 85.7615C72.5893 85.6016 83.3856 89.6023 86.812 100.328C86.9917 100.582 87.2488 100.772 87.546 100.872C87.8431 100.972 88.1649 100.976 88.4645 100.884C88.7641 100.791 89.0261 100.607 89.2123 100.358C89.3985 100.11 89.4993 99.809 89.5 99.5C86.3542 89.6895 76.7985 83 65.0423 83Z" fill="black"/>
<g clip-path="url(#clip0_9555_6671)">
<path d="M107.5 51.0396C107.5 43.8381 101.68 38 94.5 38C87.3203 38 81.5 43.8381 81.5 51.0396V54.9604C81.5 62.1619 87.3203 68 94.5 68C101.68 68 107.5 62.1619 107.5 54.9604V51.0396Z" fill="black"/>
<path d="M90.2856 47.5337C91.5493 47.5337 92.5737 46.5093 92.5737 45.2456C92.5737 43.9819 91.5493 42.9575 90.2856 42.9575C89.022 42.9575 87.9976 43.9819 87.9976 45.2456C87.9976 46.5093 89.022 47.5337 90.2856 47.5337Z" fill="white"/>
<path opacity="0.1" d="M94.5244 56.3485C97.4648 56.3485 99.8485 53.9648 99.8485 51.0244C99.8485 48.0839 97.4648 45.7002 94.5244 45.7002C91.5839 45.7002 89.2002 48.0839 89.2002 51.0244C89.2002 53.9648 91.5839 56.3485 94.5244 56.3485Z" fill="white"/>
<path d="M46.5 51.0396C46.5 43.8381 40.6797 38 33.5 38C26.3203 38 20.5 43.8381 20.5 51.0396V54.9604C20.5 62.162 26.3203 68 33.5 68C40.6797 68 46.5 62.162 46.5 54.9604V51.0396Z" fill="black"/>
<path d="M29.2856 47.5337C30.5493 47.5337 31.5737 46.5093 31.5737 45.2456C31.5737 43.9819 30.5493 42.9575 29.2856 42.9575C28.022 42.9575 26.9976 43.9819 26.9976 45.2456C26.9976 46.5093 28.022 47.5337 29.2856 47.5337Z" fill="white"/>
<path opacity="0.1" d="M33.5244 56.3485C36.4648 56.3485 38.8485 53.9648 38.8485 51.0244C38.8485 48.0839 36.4648 45.7002 33.5244 45.7002C30.5839 45.7002 28.2002 48.0839 28.2002 51.0244C28.2002 53.9648 30.5839 56.3485 33.5244 56.3485Z" fill="white"/>
</g>
<defs>
<filter id="filter0_i_9555_6671" x="0.5" y="0" width="128" height="128" filterUnits="userSpaceOnUse" color-interpolation-filters="sRGB">
<feFlood flood-opacity="0" result="BackgroundImageFix"/>
<feBlend mode="normal" in="SourceGraphic" in2="BackgroundImageFix" result="shape"/>
<feColorMatrix in="SourceAlpha" type="matrix" values="0 0 0 0 0 0 0 0 0 0 0 0 0 0 0 0 0 0 127 0" result="hardAlpha"/>
<feOffset dx="-6" dy="-6"/>
<feComposite in2="hardAlpha" operator="arithmetic" k2="-1" k3="1"/>
<feColorMatrix type="matrix" values="0 0 0 0 0 0 0 0 0 0 0 0 0 0 0 0 0 0 0.04 0"/>
<feBlend mode="normal" in2="shape" result="effect1_innerShadow_9555_6671"/>
</filter>
<filter id="filter1_f_9555_6671" x="9.5" y="56" width="47" height="36" filterUnits="userSpaceOnUse" color-interpolation-filters="sRGB">
<feFlood flood-opacity="0" result="BackgroundImageFix"/>
<feBlend mode="normal" in="SourceGraphic" in2="BackgroundImageFix" result="shape"/>
<feGaussianBlur stdDeviation="5" result="effect1_foregroundBlur_9555_6671"/>
</filter>
<filter id="filter2_f_9555_6671" x="71.5" y="56" width="47" height="36" filterUnits="userSpaceOnUse" color-interpolation-filters="sRGB">
<feFlood flood-opacity="0" result="BackgroundImageFix"/>
<feBlend mode="normal" in="SourceGraphic" in2="BackgroundImageFix" result="shape"/>
<feGaussianBlur stdDeviation="5" result="effect1_foregroundBlur_9555_6671"/>
</filter>
<clipPath id="clip0_9555_6671">
<rect width="87.4601" height="29.9649" fill="white" transform="translate(20.5 38)"/>
</clipPath>
</defs>
</svg>
